AdventPro-reg_wd_it.ufo
<glyph name="dollar" format="2">
  <advance width="766"/>
  <unicode hex="0024"/>
  <outline>
    <component base="S" xOffset="2.2176"/>
    <contour>
      <point x="346" y="-114" type="line"/>
      <point x="544" y="818" type="line"/>
      <point x="602" y="818" type="line"/>
      <point x="404" y="-114" type="line"/>
    </contour>
  </outline>
</glyph>
<glyph name="parenleft" format="2">
  <advance width="273"/>
  <unicode hex="0028"/>
  <outline>
    <contour>
      <point x="410" y="780" type="line"/>
      <point x="323" y="748"/>
      <point x="266.334" y="699.508"/>
      <point x="251.246" y="628.954" type="curve" smooth="yes"/>
      <point x="130" y="62" type="line" smooth="yes"/>
      <point x="113.634" y="-14.5302"/>
      <point x="139" y="-37"/>
      <point x="216" y="-81" type="curve"/>
      <point x="195" y="-120" type="line"/>
      <point x="127" y="-82"/>
      <point x="50" y="-58"/>
      <point x="77" y="70" type="curve" smooth="yes"/>
      <point x="195" y="627" type="line" smooth="yes"/>
      <point x="217" y="728"/>
      <point x="280" y="779"/>
      <point x="395" y="818" type="curve"/>
    </contour>
  </outline>
</glyph>
<glyph name="parenright" format="2">
  <advance width="273"/>
  <unicode hex="0029"/>
  <outline>
    <contour>
      <point x="192" y="780" type="line"/>
      <point x="271" y="756"/>
      <point x="309" y="708"/>
      <point x="294" y="637" type="curve" smooth="yes"/>
      <point x="172" y="62" type="line" smooth="yes"/>
      <point x="157" y="-11"/>
      <point x="95" y="-49"/>
      <point x="9" y="-81" type="curve"/>
      <point x="27" y="-120" type="line"/>
      <point x="113" y="-82"/>
      <point x="200" y="-58"/>
      <point x="227" y="70" type="curve" smooth="yes"/>
      <point x="345" y="627" type="line" smooth="yes"/>
      <point x="367" y="728"/>
      <point x="326" y="779"/>
      <point x="227" y="818" type="curve"/>
    </contour>
  </outline>
</glyph>
<glyph name="five" format="2">
  <advance width="632"/>
  <unicode hex="0035"/>
  <outline>
    <contour>
      <point x="226" y="412" type="line"/>
      <point x="367" y="412" type="line" smooth="yes"/>
      <point x="585" y="412"/>
      <point x="677" y="345"/>
      <point x="646" y="199" type="curve" smooth="yes"/>
      <point x="625" y="97"/>
      <point x="505" y="-12"/>
      <point x="284" y="-12" type="curve" smooth="yes"/>
      <point x="139" y="-12"/>
      <point x="35" y="44"/>
      <point x="35" y="42" type="curve"/>
      <point x="67" y="89" type="line"/>
      <point x="67" y="91"/>
      <point x="161" y="44"/>
      <point x="292" y="44" type="curve" smooth="yes"/>
      <point x="442" y="44"/>
      <point x="566" y="106"/>
      <point x="586" y="201" type="curve" smooth="yes"/>
      <point x="604" y="289"/>
      <point x="557" y="356"/>
      <point x="355" y="356" type="curve" smooth="yes"/>
      <point x="141" y="356" type="line"/>
      <point x="271" y="700" type="line"/>
      <point x="669" y="700" type="line"/>
      <point x="657" y="643" type="line"/>
      <point x="311" y="643" type="line"/>
    </contour>
  </outline>
</glyph>
<glyph name="colon" format="2">
  <advance width="144"/>
  <unicode hex="003A"/>
  <outline>
    <contour>
      <point x="135" y="144" type="curve" smooth="yes"/>
      <point x="131" y="125"/>
      <point x="112" y="111"/>
      <point x="94" y="111" type="curve" smooth="yes"/>
      <point x="76" y="111"/>
      <point x="63" y="125"/>
      <point x="67" y="144" type="curve" smooth="yes"/>
      <point x="70" y="162"/>
      <point x="90" y="177"/>
      <point x="108" y="177" type="curve" smooth="yes"/>
      <point x="126" y="177"/>
      <point x="138" y="162"/>
    </contour>
    <contour>
      <point x="186" y="385" type="curve" smooth="yes"/>
      <point x="182" y="367"/>
      <point x="163" y="352"/>
      <point x="145" y="352" type="curve" smooth="yes"/>
      <point x="127" y="352"/>
      <point x="114" y="367"/>
      <point x="118" y="385" type="curve" smooth="yes"/>
      <point x="122" y="404"/>
      <point x="141" y="418"/>
      <point x="159" y="418" type="curve" smooth="yes"/>
      <point x="177" y="418"/>
      <point x="190" y="404"/>
    </contour>
  </outline>
</glyph>
<glyph name="greater" format="2">
  <advance width="563"/>
  <unicode hex="003E"/>
  <outline>
    <contour>
      <point x="172" y="599" type="line"/>
      <point x="237" y="637" type="line"/>
      <point x="595" y="359" type="line"/>
      <point x="119" y="79" type="line"/>
      <point x="70" y="119" type="line"/>
      <point x="481" y="357" type="line"/>
    </contour>
  </outline>
</glyph>
<glyph name="O" format="2">
  <advance width="701"/>
  <unicode hex="004F"/>
  <outline>
    <contour>
      <point x="138" y="488" type="line" smooth="yes"/>
      <point x="171" y="644"/>
      <point x="298" y="717"/>
      <point x="506" y="717" type="curve" smooth="yes"/>
      <point x="712" y="717"/>
      <point x="801" y="638"/>
      <point x="769" y="487" type="curve" smooth="yes"/>
      <point x="709" y="206" type="line" smooth="yes"/>
      <point x="679" y="64"/>
      <point x="544" y="-12"/>
      <point x="348" y="-12" type="curve" smooth="yes"/>
      <point x="162" y="-12"/>
      <point x="46" y="56"/>
      <point x="78" y="206" type="curve" smooth="yes"/>
    </contour>
    <contour>
      <point x="135" y="207" type="line" smooth="yes"/>
      <point x="110" y="91"/>
      <point x="216" y="41"/>
      <point x="357" y="41" type="curve" smooth="yes"/>
      <point x="505" y="41"/>
      <point x="627" y="88"/>
      <point x="652" y="207" type="curve" smooth="yes"/>
      <point x="714" y="497" type="line" smooth="yes"/>
      <point x="739" y="614"/>
      <point x="642" y="664"/>
      <point x="489" y="664" type="curve" smooth="yes"/>
      <point x="341" y="664"/>
      <point x="222" y="614"/>
      <point x="197" y="497" type="curve" smooth="yes"/>
    </contour>
  </outline>
</glyph>
<glyph name="Z" format="2">
  <advance width="783"/>
  <unicode hex="005A"/>
  <outline>
    <contour>
      <point x="189" y="700" type="line"/>
      <point x="894" y="700" type="line"/>
      <point x="883" y="650.98" type="line"/>
      <point x="145.307" y="72.9633" type="line"/>
      <point x="115" y="50" type="line"/>
      <point x="762.787" y="49" type="line"/>
      <point x="752" y="0" type="line"/>
      <point x="22" y="0" type="line"/>
      <point x="33" y="49.0196" type="line"/>
      <point x="765.758" y="626.179" type="line"/>
      <point x="797" y="650" type="line"/>
      <point x="178.213" y="651" type="line"/>
    </contour>
  </outline>
</glyph>
<glyph name="h" format="2">
  <advance width="622"/>
  <unicode hex="0068"/>
  <outline>
    <contour>
      <point x="196" y="467" type="line"/>
      <point x="259" y="493"/>
      <point x="370" y="511"/>
      <point x="445" y="511" type="curve" smooth="yes"/>
      <point x="613" y="511"/>
      <point x="696" y="472"/>
      <point x="672" y="356" type="curve" smooth="yes"/>
      <point x="596" y="0" type="line"/>
      <point x="539" y="0" type="line"/>
      <point x="614" y="353" type="line" smooth="yes"/>
      <point x="636" y="454"/>
      <point x="512" y="460"/>
      <point x="416" y="460" type="curve" smooth="yes"/>
      <point x="347" y="460"/>
      <point x="254" y="448"/>
      <point x="187" y="425" type="curve"/>
      <point x="97" y="0" type="line"/>
      <point x="41" y="0" type="line"/>
      <point x="190" y="700" type="line"/>
      <point x="246" y="700" type="line"/>
    </contour>
  </outline>
</glyph>
<glyph name="p" format="2">
  <advance width="626"/>
  <unicode hex="0070"/>
  <outline>
    <contour>
      <point x="631" y="176" type="line" smooth="yes"/>
      <point x="604" y="49"/>
      <point x="502" y="-12"/>
      <point x="336" y="-12" type="curve" smooth="yes"/>
      <point x="241" y="-12"/>
      <point x="136" y="20"/>
      <point x="109" y="61" type="curve"/>
      <point x="51" y="-212" type="line"/>
      <point x="-1" y="-188" type="line"/>
      <point x="145" y="500" type="line"/>
      <point x="202" y="500" type="line"/>
      <point x="192" y="453" type="line"/>
      <point x="266" y="489"/>
      <point x="373" y="508"/>
      <point x="447" y="510" type="curve" smooth="yes"/>
      <point x="614" y="515"/>
      <point x="692" y="462"/>
      <point x="668" y="346" type="curve" smooth="yes"/>
    </contour>
    <contour>
      <point x="611" y="343" type="line" smooth="yes"/>
      <point x="634" y="453"/>
      <point x="516" y="466"/>
      <point x="419" y="460" type="curve" smooth="yes"/>
      <point x="352" y="456"/>
      <point x="231" y="434"/>
      <point x="180" y="393" type="curve"/>
      <point x="133" y="174" type="line" smooth="yes"/>
      <point x="115" y="89"/>
      <point x="228" y="40"/>
      <point x="343" y="40" type="curve" smooth="yes"/>
      <point x="456" y="40"/>
      <point x="554" y="77"/>
      <point x="573" y="167" type="curve" smooth="yes"/>
    </contour>
  </outline>
</glyph>
<glyph name="r" format="2">
  <advance width="467"/>
  <unicode hex="0072"/>
  <outline>
    <contour>
      <point x="540" y="461" type="line"/>
      <point x="540" y="461"/>
      <point x="508" y="463"/>
      <point x="475" y="462" type="curve" smooth="yes"/>
      <point x="391" y="460"/>
      <point x="242" y="436"/>
      <point x="183" y="413" type="curve"/>
      <point x="95" y="0" type="line"/>
      <point x="38" y="0" type="line"/>
      <point x="144" y="501" type="line"/>
      <point x="201" y="501" type="line"/>
      <point x="194" y="468" type="line"/>
      <point x="272" y="490"/>
      <point x="379" y="508"/>
      <point x="488" y="512" type="curve" smooth="yes"/>
      <point x="524" y="513"/>
      <point x="554" y="509"/>
      <point x="554" y="509" type="curve"/>
    </contour>
  </outline>
</glyph>
<glyph name="x" format="2">
  <advance width="642"/>
  <unicode hex="0078"/>
  <outline>
    <contour>
      <point x="384" y="286" type="line"/>
      <point x="643" y="500" type="line"/>
      <point x="724" y="500" type="line"/>
      <point x="413" y="242" type="line"/>
      <point x="602" y="0" type="line"/>
      <point x="528" y="0" type="line"/>
      <point x="372" y="206" type="line"/>
      <point x="121" y="0" type="line"/>
      <point x="39" y="0" type="line"/>
      <point x="339" y="251" type="line"/>
      <point x="142" y="500" type="line"/>
      <point x="217" y="500" type="line"/>
    </contour>
  </outline>
</glyph>
<glyph name="z" format="2">
  <advance width="596"/>
  <unicode hex="007A"/>
  <outline>
    <contour>
      <point x="652" y="501" type="line"/>
      <point x="642" y="452" type="line"/>
      <point x="121" y="51" type="line"/>
      <point x="578.787" y="50" type="line"/>
      <point x="568" y="0" type="line"/>
      <point x="26" y="0" type="line"/>
      <point x="37" y="50" type="line"/>
      <point x="555" y="451" type="line"/>
      <point x="135.213" y="452" type="line"/>
      <point x="145" y="501" type="line"/>
    </contour>
  </outline>
</glyph>
<glyph name="ordfeminine" format="2">
  <advance width="494"/>
  <unicode hex="00AA"/>
  <outline>
    <contour>
      <point x="523" y="390" type="curve"/>
      <point x="456" y="385"/>
      <point x="393" y="379"/>
      <point x="339" y="379" type="curve"/>
      <point x="207" y="382"/>
      <point x="122" y="411"/>
      <point x="145" y="519" type="curve" smooth="yes"/>
      <point x="159" y="584"/>
      <point x="225" y="633"/>
      <point x="328" y="631" type="curve" smooth="yes"/>
      <point x="373" y="630"/>
      <point x="427" y="618"/>
      <point x="488" y="593" type="curve"/>
      <point x="493" y="615"/>
      <point x="483" y="637"/>
      <point x="453" y="651" type="curve" smooth="yes"/>
      <point x="429" y="663"/>
      <point x="384" y="666"/>
      <point x="328" y="666" type="curve"/>
      <point x="343" y="709" type="line"/>
      <point x="424" y="709"/>
      <point x="484" y="701"/>
      <point x="519" y="678" type="curve"/>
      <point x="556" y="656"/>
      <point x="571" y="616"/>
      <point x="558" y="555" type="curve" smooth="yes"/>
      <point x="546" y="501"/>
      <point x="535" y="445"/>
    </contour>
    <contour>
      <point x="474" y="543" type="line"/>
      <point x="420" y="567"/>
      <point x="358" y="584"/>
      <point x="310" y="584" type="curve" smooth="yes"/>
      <point x="262" y="584"/>
      <point x="225" y="565"/>
      <point x="214" y="514" type="curve" smooth="yes"/>
      <point x="206" y="474"/>
      <point x="224" y="448"/>
      <point x="271" y="433" type="curve" smooth="yes"/>
      <point x="323" y="417"/>
      <point x="451" y="430"/>
      <point x="450" y="429" type="curve"/>
    </contour>
  </outline>
</glyph>
<glyph name="guillemotleft" format="2">
  <advance width="769"/>
  <unicode hex="00AB"/>
  <outline>
    <contour>
      <point x="544.753" y="267" type="line"/>
      <point x="801.636" y="417" type="line"/>
      <point x="755.713" y="455" type="line"/>
      <point x="433.753" y="267" type="line"/>
      <point x="675.792" y="79" type="line"/>
      <point x="734.231" y="114" type="line"/>
    </contour>
    <contour>
      <point x="216.753" y="267" type="line"/>
      <point x="471.636" y="417" type="line"/>
      <point x="424.713" y="455" type="line"/>
      <point x="103.753" y="267" type="line"/>
      <point x="344.792" y="79" type="line"/>
      <point x="404.231" y="114" type="line"/>
    </contour>
  </outline>
</glyph>
<glyph name="guillemotright" format="2">
  <advance width="756"/>
  <unicode hex="00BB"/>
  <outline>
    <contour>
      <point x="329" y="267" type="line"/>
      <point x="136" y="417" type="line"/>
      <point x="198" y="455" type="line"/>
      <point x="440" y="267" type="line"/>
      <point x="118" y="79" type="line"/>
      <point x="74" y="114" type="line"/>
    </contour>
    <contour>
      <point x="657" y="267" type="line"/>
      <point x="466" y="417" type="line"/>
      <point x="529" y="455" type="line"/>
      <point x="770" y="267" type="line"/>
      <point x="449" y="79" type="line"/>
      <point x="404" y="114" type="line"/>
    </contour>
  </outline>
</glyph>
<glyph name="circumflexcomb" format="2">
  <advance width="267"/>
  <unicode hex="0302"/>
  <outline>
    <contour>
      <point x="397" y="624" type="line"/>
      <point x="349" y="587" type="line"/>
      <point x="278" y="675" type="line"/>
      <point x="166" y="585" type="line"/>
      <point x="135" y="623" type="line"/>
      <point x="295" y="751" type="line"/>
    </contour>
  </outline>
</glyph>
<glyph name="ogonekcomb" format="2">
  <advance width="267"/>
  <unicode hex="0328"/>
  <outline>
    <contour>
      <point x="164" y="11" type="line"/>
      <point x="162" y="2" type="line"/>
      <point x="67" y="-113" type="line" smooth="yes"/>
      <point x="29" y="-158"/>
      <point x="50" y="-192"/>
      <point x="103" y="-175" type="curve" smooth="yes"/>
      <point x="162" y="-155"/>
      <point x="206" y="-141"/>
      <point x="207" y="-141" type="curve"/>
      <point x="217" y="-180" type="line"/>
      <point x="218" y="-180"/>
      <point x="123" y="-212"/>
      <point x="105" y="-217" type="curve" smooth="yes"/>
      <point x="10" y="-241"/>
      <point x="-27" y="-168"/>
      <point x="32" y="-99" type="curve" smooth="yes"/>
      <point x="119" y="3" type="line"/>
      <point x="120" y="11" type="line"/>
    </contour>
  </outline>
</glyph>
<glyph name="dieresistonoscomb" format="2">
  <advance width="267"/>
  <unicode hex="0344"/>
  <outline>
    <contour>
      <point x="234" y="692" type="curve" smooth="yes"/>
      <point x="230" y="674"/>
      <point x="213" y="659"/>
      <point x="194" y="659" type="curve" smooth="yes"/>
      <point x="176" y="659"/>
      <point x="163" y="674"/>
      <point x="167" y="692" type="curve" smooth="yes"/>
      <point x="171" y="711"/>
      <point x="190" y="725"/>
      <point x="208" y="725" type="curve" smooth="yes"/>
      <point x="227" y="725"/>
      <point x="238" y="711"/>
    </contour>
    <contour>
      <point x="393" y="692" type="curve" smooth="yes"/>
      <point x="389" y="674"/>
      <point x="370" y="659"/>
      <point x="352" y="659" type="curve" smooth="yes"/>
      <point x="334" y="659"/>
      <point x="322" y="674"/>
      <point x="326" y="692" type="curve" smooth="yes"/>
      <point x="330" y="711"/>
      <point x="348" y="725"/>
      <point x="366" y="725" type="curve" smooth="yes"/>
      <point x="384" y="725"/>
      <point x="397" y="711"/>
    </contour>
    <contour>
      <point x="378" y="816" type="curve" smooth="yes"/>
      <point x="308" y="736" type="line"/>
      <point x="272" y="736" type="line"/>
      <point x="333" y="843" type="line" smooth="yes"/>
      <point x="343" y="861"/>
      <point x="366" y="873"/>
      <point x="381" y="863" type="curve" smooth="yes"/>
      <point x="397" y="853"/>
      <point x="392" y="831"/>
    </contour>
  </outline>
  <guideline angle="90" x="134.745" y="0"/>
</glyph>
<glyph name="kappa" format="2">
  <advance width="620"/>
  <unicode hex="03BA"/>
  <outline>
    <contour>
      <point x="479" y="118" type="line" smooth="yes"/>
      <point x="520" y="71"/>
      <point x="561" y="48"/>
      <point x="600" y="48" type="curve" smooth="yes"/>
      <point x="606" y="48" type="line"/>
      <point x="596" y="0" type="line"/>
      <point x="593" y="0" type="line" smooth="yes"/>
      <point x="487" y="0"/>
      <point x="443" y="63"/>
      <point x="398" y="116" type="curve" smooth="yes"/>
      <point x="269" y="265" type="line"/>
      <point x="136" y="182" type="line"/>
      <point x="97" y="0" type="line"/>
      <point x="38" y="0" type="line"/>
      <point x="147" y="512" type="line"/>
      <point x="203" y="499" type="line"/>
      <point x="151" y="252" type="line"/>
      <point x="549" y="501" type="line"/>
      <point x="647" y="501" type="line"/>
      <point x="324" y="299" type="line"/>
    </contour>
  </outline>
</glyph>
<glyph name="lambda" format="2">
  <advance width="726"/>
  <unicode hex="03BB"/>
  <outline>
    <contour>
      <point x="623" y="124" type="line"/>
      <point x="630" y="102"/>
      <point x="630" y="44"/>
      <point x="714" y="26" type="curve"/>
      <point x="675" y="-11" type="line"/>
      <point x="599" y="9"/>
      <point x="579" y="40"/>
      <point x="562" y="112" type="curve" smooth="yes"/>
      <point x="481" y="460" type="line"/>
      <point x="432" y="449"/>
      <point x="379" y="435"/>
      <point x="331" y="360" type="curve" smooth="yes"/>
      <point x="95" y="-1" type="line"/>
      <point x="35" y="-1" type="line"/>
      <point x="277" y="371" type="line" smooth="yes"/>
      <point x="323" y="441"/>
      <point x="374" y="484"/>
      <point x="470" y="506" type="curve"/>
      <point x="452" y="578" type="line" smooth="yes"/>
      <point x="441" y="621"/>
      <point x="381" y="654"/>
      <point x="301" y="654" type="curve"/>
      <point x="325" y="697" type="line"/>
      <point x="505" y="695"/>
      <point x="511" y="600"/>
      <point x="520" y="557" type="curve" smooth="yes"/>
    </contour>
  </outline>
</glyph>
<glyph name="uni0428" format="2">
  <advance width="920"/>
  <unicode hex="0428"/>
  <outline>
    <contour>
      <point x="973" y="700" type="line"/>
      <point x="1027" y="700" type="line"/>
      <point x="878" y="0" type="line"/>
      <point x="44" y="0" type="line"/>
      <point x="193" y="700" type="line"/>
      <point x="247" y="700" type="line"/>
      <point x="110" y="57" type="line"/>
      <point x="444" y="57" type="line"/>
      <point x="581" y="700" type="line"/>
      <point x="638" y="700" type="line"/>
      <point x="501" y="57" type="line"/>
      <point x="836" y="57" type="line"/>
    </contour>
  </outline>
</glyph>
<glyph name="uni0429" format="2">
  <advance width="955"/>
  <unicode hex="0429"/>
  <outline>
    <component base="uni0428"/>
    <contour>
      <point x="847" y="57" type="line"/>
      <point x="943" y="57" type="line"/>
      <point x="909" y="-105" type="line"/>
      <point x="862" y="-105" type="line"/>
      <point x="880" y="0" type="line"/>
      <point x="835" y="0" type="line"/>
    </contour>
  </outline>
</glyph>
<glyph name="uni0452" format="2">
  <advance width="652"/>
  <unicode hex="0452"/>
  <outline>
    <contour>
      <point x="131" y="618" type="line"/>
      <point x="484" y="618" type="line"/>
      <point x="473" y="565" type="line"/>
      <point x="120" y="565" type="line"/>
    </contour>
    <contour>
      <point x="487" y="510" type="curve" smooth="yes"/>
      <point x="654" y="510"/>
      <point x="730" y="452"/>
      <point x="708" y="346" type="curve" smooth="yes"/>
      <point x="621" y="-63" type="line" smooth="yes"/>
      <point x="603" y="-145"/>
      <point x="548" y="-185"/>
      <point x="429" y="-210" type="curve"/>
      <point x="422" y="-167" type="line"/>
      <point x="496" y="-150"/>
      <point x="555" y="-119"/>
      <point x="565" y="-69" type="curve" smooth="yes"/>
      <point x="653" y="343" type="line" smooth="yes"/>
      <point x="672" y="434"/>
      <point x="556" y="460"/>
      <point x="460" y="460" type="curve" smooth="yes"/>
      <point x="391" y="460"/>
      <point x="287" y="448"/>
      <point x="220" y="425" type="curve"/>
      <point x="130" y="0" type="line"/>
      <point x="76" y="0" type="line"/>
      <point x="225" y="700" type="line"/>
      <point x="279" y="700" type="line"/>
      <point x="229" y="467" type="line"/>
      <point x="292" y="493"/>
      <point x="412" y="510"/>
    </contour>
  </outline>
</glyph>
<glyph name="uni0459" format="2">
  <advance width="1162"/>
  <unicode hex="0459"/>
  <outline>
    <contour>
      <point x="985" y="303" type="line" smooth="yes"/>
      <point x="1107" y="303"/>
      <point x="1185" y="258"/>
      <point x="1162" y="152" type="curve" smooth="yes"/>
      <point x="1141" y="52"/>
      <point x="1060" y="-8"/>
      <point x="861" y="-8" type="curve" smooth="yes"/>
      <point x="733" y="-8"/>
      <point x="595" y="3"/>
      <point x="595" y="3" type="curve"/>
      <point x="689" y="447" type="line"/>
      <point x="534" y="447" type="line" smooth="yes"/>
      <point x="455" y="447"/>
      <point x="405" y="421"/>
      <point x="376" y="378" type="curve" smooth="yes"/>
      <point x="199" y="112" type="line" smooth="yes"/>
      <point x="151" y="40"/>
      <point x="121" y="4"/>
      <point x="38" y="-11" type="curve"/>
      <point x="4" y="20" type="line"/>
      <point x="95" y="38"/>
      <point x="130" y="102"/>
      <point x="144" y="124" type="curve" smooth="yes"/>
      <point x="299" y="357" type="line" smooth="yes"/>
      <point x="327" y="400"/>
      <point x="382" y="500"/>
      <point x="550" y="500" type="curve" smooth="yes"/>
      <point x="754" y="500" type="line"/>
      <point x="712" y="303" type="line"/>
    </contour>
    <contour>
      <point x="858" y="45" type="curve" smooth="yes"/>
      <point x="1002" y="45"/>
      <point x="1085" y="70"/>
      <point x="1102" y="149" type="curve" smooth="yes"/>
      <point x="1120" y="236"/>
      <point x="1035" y="248"/>
      <point x="980" y="248" type="curve" smooth="yes"/>
      <point x="701" y="248" type="line"/>
      <point x="658" y="49" type="line"/>
      <point x="658" y="49"/>
      <point x="760" y="45"/>
    </contour>
  </outline>
</glyph>
<glyph name="quotedblright" format="2">
  <advance width="307"/>
  <unicode hex="201D"/>
  <outline>
    <contour>
      <point x="148" y="559" type="line"/>
      <point x="175" y="585"/>
      <point x="189" y="611"/>
      <point x="195" y="633" type="curve"/>
      <point x="181" y="637"/>
      <point x="171" y="650"/>
      <point x="175" y="666" type="curve" smooth="yes"/>
      <point x="179" y="685"/>
      <point x="197" y="700"/>
      <point x="215" y="700" type="curve" smooth="yes"/>
      <point x="234" y="700"/>
      <point x="245" y="686"/>
      <point x="243" y="666" type="curve"/>
      <point x="230" y="606"/>
      <point x="187" y="563"/>
      <point x="163" y="546" type="curve"/>
    </contour>
    <contour>
      <point x="329" y="559" type="line"/>
      <point x="355" y="585"/>
      <point x="368" y="611"/>
      <point x="376" y="633" type="curve"/>
      <point x="360" y="637"/>
      <point x="351" y="650"/>
      <point x="355" y="666" type="curve" smooth="yes"/>
      <point x="359" y="685"/>
      <point x="377" y="700"/>
      <point x="395" y="700" type="curve" smooth="yes"/>
      <point x="413" y="700"/>
      <point x="426" y="686"/>
      <point x="422" y="666" type="curve" smooth="yes"/>
      <point x="409" y="605"/>
      <point x="367" y="564"/>
      <point x="343" y="546" type="curve"/>
    </contour>
  </outline>
</glyph>
